<?xml version="1.0" encoding="UTF-8" standalone="no"?>
<!-- Created with Inkscape (http://www.inkscape.org/) -->

<svg
   version="1.1"
   id="svg46"
   width="197.33333"
   height="225.33333"
   viewBox="0 0 197.33333 225.33333"
   sodipodi:docname="onslow-logo.svg"
   inkscape:version="1.2.1 (9c6d41e410, 2022-07-14, custom)"
   xmlns:inkscape="http://www.inkscape.org/namespaces/inkscape"
   xmlns:sodipodi="http://sodipodi.sourceforge.net/DTD/sodipodi-0.dtd"
   xmlns="http://www.w3.org/2000/svg"
   xmlns:svg="http://www.w3.org/2000/svg">
  <defs
     id="defs50" />
  <sodipodi:namedview
     id="namedview48"
     pagecolor="#ffffff"
     bordercolor="#000000"
     borderopacity="0.25"
     inkscape:showpageshadow="2"
     inkscape:pageopacity="0.0"
     inkscape:pagecheckerboard="0"
     inkscape:deskcolor="#d1d1d1"
     showgrid="false"
     inkscape:zoom="3.1863906"
     inkscape:cx="167.27391"
     inkscape:cy="133.22284"
     inkscape:window-width="1920"
     inkscape:window-height="1012"
     inkscape:window-x="0"
     inkscape:window-y="0"
     inkscape:window-maximized="1"
     inkscape:current-layer="g52" />
  <g
     inkscape:groupmode="layer"
     inkscape:label="Image"
     id="g52">
    <path
       style="fill:#000000"
       d="m 96.588355,36.338525 c 0,0 -5.419369,-20.411413 -27.701634,-21.352917 0,0 26.362116,-12.0041782 46.682919,3.452182 0,0 24.79294,-10.7488394 43.54456,15.927112 0,0 -32.31353,-22.41487 -62.525845,1.973623 z"
       id="path340" />
    <path
       style="fill:#000000"
       d="m 97.288763,39.621633 c 0,0 32.198437,-26.084839 67.039037,2.320237 34.84061,28.405077 27.51742,68.1278 27.51742,68.1278 0,0 0.11096,31.51188 -24.29965,56.14441 0,0 -18.52988,-25.63114 -36.50496,-31.95571 0,0 41.49804,-22.41338 23.96678,-60.249832 0,0 -9.81972,-20.249712 -27.85029,-16.310727 0,0 17.80865,5.991696 18.03057,15.700462 0,0 3.21776,12.03887 -4.1609,24.52157 -7.37867,12.482697 -19.86137,13.925147 -19.86137,13.925147 0,0 -31.955707,5.76978 -37.725489,-25.85306 0,0 -2.163667,-9.375894 -0.554786,-19.362054 0,0 10.984775,-1.719838 14.590889,-13.869666 0,0 1.62273,-8.690417 -0.187251,-13.138577 z"
       id="path342" />
    <path
       style="fill:#000000"
       d="m 82.718689,95.312346 c 0,0 5.880738,14.368974 24.743481,28.349594 0,0 28.29412,16.19977 35.95018,22.35791 7.65605,6.15813 17.36482,18.03056 17.36482,18.03056 0,0 10.02738,11.69703 11.04734,22.75971 0,0 0.62767,3.29526 -0.86305,5.17827 -1.49071,1.88301 -9.65041,9.65042 -9.65041,9.65042 0,0 -5.72749,-26.12674 -24.00836,-39.38626 0,0 -16.12326,-14.86792 -23.14531,-16.79016 0,0 -0.75899,1.44511 3.01356,4.66288 0,0 17.19839,10.98477 21.08189,17.64221 0,0 16.31073,15.8669 20.19424,34.61869 0,0 0.27484,1.29256 -0.27437,1.48871 -0.54921,0.19615 -21.30153,10.435 -25.45984,10.90576 0,0 -0.3923,-18.55548 -5.17828,-22.79225 0,0 -8.4343,-20.16388 -15.80942,-25.42061 0,0 -2.62837,-1.01997 -1.72609,2.23607 0,0 9.65042,12.63185 9.96425,15.84865 0,0 8.08144,9.079 9.63484,30.3828 0,0 -10.6548,3.78596 -21.4821,3.58981 0,0 4.0618,-14.13075 -2.15181,-30.21957 0,0 -7.212227,-29.29273 -24.188698,-43.82814 C 64.79908,130.04199 55.478665,113.39839 57.586854,90.652138 c 0,0 -22.080509,0 -35.506346,26.629762 0,0 -9.209458,23.85582 5.43691,44.49389 0,0 -17.474707,-20.39325 -19.8284674,-40.63559 C 5.3351902,100.89786 3.6090993,83.166201 19.143918,58.373258 34.678736,33.580315 47.075208,22.125348 59.628597,19.457753 c 12.553388,-2.667596 24.792942,-0.784587 32.795728,15.064066 8.002785,15.848653 -4.236769,28.872794 -8.002786,28.402042 0,0 2.069699,-5.947272 2.45805,-8.443812 0.38835,-2.49654 -1.331488,-3.384199 -2.10819,-3.106806 0,0 -1.941753,0 -2.385582,1.719839 -0.443829,1.719839 -4.216379,11.484084 -3.938985,14.979239 0.277393,3.495156 -2.552019,14.701847 4.271857,27.240025 z"
       id="path344" />
    <path
       style="fill:#000000"
       d="m 53.758826,93.925379 c 0,0 -23.003024,7.757071 -30.064305,27.842491 0,0 -9.101207,25.42061 14.436397,51.62581 23.537604,26.2052 65.905292,22.75302 65.905292,22.75302 0,0 -6.433612,-36.09099 -30.128134,-55.39183 C 50.213555,121.45404 53.758826,93.925379 53.758826,93.925379 Z"
       id="path346" />
  </g>
</svg>
